<?xml version="1.0" encoding="utf-8"?>
<!-- Generator: Adobe Illustrator 16.0.0, SVG Export Plug-In . SVG Version: 6.00 Build 0)  -->
<!DOCTYPE svg PUBLIC "-//W3C//DTD SVG 1.1//EN" "http://www.w3.org/Graphics/SVG/1.1/DTD/svg11.dtd">
<svg version="1.1" id="Layer_1" xmlns="http://www.w3.org/2000/svg" xmlns:xlink="http://www.w3.org/1999/xlink" x="0px" y="0px"
	 width="1000px" height="700px" viewBox="0 0 1000 700" enable-background="new 0 0 1000 700" xml:space="preserve">
<path opacity="0.8" fill="#E8E8E8" stroke="#325653" stroke-miterlimit="10" d="M956.549,364.988l0.688-328.183H612.153
	c-22.352-14.689-49.378-23.285-78.495-23.285c-24.667,0-47.831,6.174-67.928,16.99c-6.697,2.179-13.678,3.383-20.726,3.59
	c-6.51-3.208-13.75-5.01-21.386-5.01c-28.271,0-51.19,24.518-51.19,54.762c0,19.175,9.22,36.038,23.168,45.82
	c-0.802,5.817-1.224,11.749-1.224,17.777c0,57.388,37.542,106.337,90.296,125.4c35.001,22.448,61.612,55.904,75.574,95.173
	l0.047-0.038c18.502,50.285,62.756,86.881,115.561,91.545l-0.256,0.473c44.913,1.106,88.134,17.028,122.998,45.177
	c19.535,23.664,49.351,38.791,82.764,38.791c58.845,0,106.548-46.902,106.548-104.762
	C987.904,410.206,975.917,383.958,956.549,364.988z"/>
<path opacity="0.8" fill="#325653" stroke="#325653" stroke-miterlimit="10" d="M525.715,110.718
	c9.465-18.637,12.66-39.831,9.111-60.43l63.553-64.02c20.625,3.398,41.795,0.047,60.363-9.554L525.715,110.718z"/>
<path opacity="0.8" fill="#325653" stroke="#325653" stroke-miterlimit="10" d="M500,0"/>
<ellipse fill="#325653" stroke="#325653" stroke-miterlimit="10" cx="513.214" cy="32.76" rx="55.357" ry="61.905"/>
<path fill="#325653" stroke="#325653" stroke-miterlimit="10" d="M553.77-4.918c100.918,108.624,234.207,181.767,380.037,208.547
	L818.462,368.793c-75.358-127.69-189.926-227.64-326.657-284.983L553.77-4.918z"/>
<path fill="#325653" stroke="#325653" stroke-miterlimit="10" d="M544.701-12.77c70.116,48.489,154.012,73.048,239.207,70.022
	L665.674,257.774c-38.591-76.014-100.69-137.54-177.06-175.423L544.701-12.77z"/>
<path fill="#325653" stroke="#325653" stroke-miterlimit="10" d="M541.348-14.915C566.745,0.072,596.302,6.46,625.621,3.298
	l-94.905,144.341c-8.718-28.171-26.297-52.777-50.123-70.154L541.348-14.915z"/>
<ellipse fill="#325653" stroke="#325653" stroke-miterlimit="10" cx="600.519" cy="86.109" rx="111.904" ry="127.381"/>
<path fill="#325653" stroke="#325653" stroke-miterlimit="10" d="M728.35,49.055c54,74.797,130.704,130.163,218.701,157.861
	L824.478,377.925C769.98,303.489,692.91,248.634,604.731,221.521L728.35,49.055z"/>
<path fill="#325653" stroke="#325653" stroke-miterlimit="10" d="M681.881,8.199c24.455,19.876,54.448,31.039,85.517,31.827
	L651.199,265.65c-17.922-26.315-43.562-45.93-73.104-55.928L681.881,8.199z"/>
<ellipse transform="matrix(0.9985 0.0548 -0.0548 0.9985 13.311 -42.4169)" fill="#325653" stroke="#325653" stroke-miterlimit="10" cx="779.822" cy="221.422" rx="131.677" ry="154.907"/>
<path fill="#325653" stroke="#325653" stroke-miterlimit="10" d="M940.806,212.336c10.544,25.944,29.69,47.961,54.593,62.777
	L857.272,420.353c-18.31-21.749-43.584-37.321-72.069-44.401L940.806,212.336z"/>
<ellipse fill="#325653" stroke="#325653" stroke-miterlimit="10" cx="947.051" cy="365.278" rx="106.767" ry="107.506"/>
<polygon fill="#325653" stroke="#325653" stroke-miterlimit="10" points="466.24,0 1001,0 1000,406.355 "/>
<path fill="#325653" stroke="#325653" stroke-miterlimit="10" d="M989.188,338.697l0.689-328.182H644.793
	C622.441-4.174,595.414-12.77,566.297-12.77c-24.666,0-47.83,6.174-67.928,16.99c-6.697,2.179-13.678,3.383-20.725,3.59
	c-6.51-3.208-13.75-5.01-21.386-5.01c-28.272,0-51.191,24.518-51.191,54.762c0,19.175,9.22,36.038,23.168,45.82
	c-0.802,5.817-1.224,11.749-1.224,17.777c0,57.388,37.542,106.337,90.296,125.4c35,22.449,61.611,55.904,75.574,95.174l0.047-0.039
	c18.502,50.284,62.756,86.88,115.561,91.544l-0.256,0.473c44.912,1.107,88.133,17.029,122.998,45.178
	c19.535,23.664,49.35,38.791,82.764,38.791c58.844,0,106.547-46.902,106.547-104.762
	C1020.543,383.915,1008.557,357.668,989.188,338.697z"/>
</svg>
